<svg width="1200" height="400" viewBox="0 0 1200 400" xmlns="http://www.w3.org/2000/svg">
  <!-- Night sky background with stars -->
  <rect width="1200" height="400" fill="#0f172a" />
  
  <!-- Stars -->
  <g fill="#ffffff">
    <circle cx="100" cy="50" r="1" opacity="0.8" />
    <circle cx="200" cy="80" r="1.5" opacity="0.7" />
    <circle cx="300" cy="30" r="1" opacity="0.9" />
    <circle cx="400" cy="70" r="1.2" opacity="0.8" />
    <circle cx="500" cy="40" r="1" opacity="0.7" />
    <circle cx="600" cy="60" r="1.3" opacity="0.9" />
    <circle cx="700" cy="20" r="1" opacity="0.8" />
    <circle cx="800" cy="90" r="1.4" opacity="0.7" />
    <circle cx="900" cy="50" r="1" opacity="0.9" />
    <circle cx="1000" cy="30" r="1.2" opacity="0.8" />
    <circle cx="1100" cy="70" r="1" opacity="0.7" />
    <circle cx="150" cy="100" r="1.3" opacity="0.9" />
    <circle cx="250" cy="120" r="1" opacity="0.8" />
    <circle cx="350" cy="80" r="1.5" opacity="0.7" />
    <circle cx="450" cy="110" r="1" opacity="0.9" />
    <circle cx="550" cy="90" r="1.2" opacity="0.8" />
    <circle cx="650" cy="130" r="1" opacity="0.7" />
    <circle cx="750" cy="100" r="1.3" opacity="0.9" />
    <circle cx="850" cy="120" r="1" opacity="0.8" />
    <circle cx="950" cy="80" r="1.4" opacity="0.7" />
    <circle cx="1050" cy="110" r="1" opacity="0.9" />
    <circle cx="1150" cy="90" r="1.2" opacity="0.8" />
  </g>
  
  <!-- Moon -->
  <circle cx="900" cy="80" r="40" fill="#f8fafc" opacity="0.9" />
  <circle cx="880" cy="70" r="10" fill="#0f172a" opacity="0.1" />
  <circle cx="920" cy="90" r="8" fill="#0f172a" opacity="0.1" />
  
  <!-- Distant mountains -->
  <path d="M0,250 L100,200 L200,230 L300,180 L400,220 L500,170 L600,210 L700,160 L800,220 L900,180 L1000,230 L1100,190 L1200,240 L1200,400 L0,400 Z" fill="#1e293b" />
  
  <!-- Hill with castle -->
  <path d="M300,280 Q600,150 900,280 L900,400 L300,400 Z" fill="#334155" />
  
  <!-- Castle base -->
  <rect x="500" y="200" width="200" height="100" fill="#475569" />
  
  <!-- Main tower -->
  <rect x="550" y="150" width="100" height="150" fill="#64748b" />
  <polygon points="550,150 650,150 600,100" fill="#64748b" />
  
  <!-- Left tower -->
  <rect x="480" y="180" width="50" height="120" fill="#64748b" />
  <polygon points="480,180 530,180 505,150" fill="#64748b" />
  
  <!-- Right tower -->
  <rect x="670" y="180" width="50" height="120" fill="#64748b" />
  <polygon points="670,180 720,180 695,150" fill="#64748b" />
  
  <!-- Windows and details -->
  <rect x="570" y="170" width="20" height="30" fill="#0f172a" />
  <rect x="610" y="170" width="20" height="30" fill="#0f172a" />
  <rect x="570" y="220" width="20" height="30" fill="#0f172a" />
  <rect x="610" y="220" width="20" height="30" fill="#0f172a" />
  
  <rect x="495" y="200" width="10" height="20" fill="#0f172a" />
  <rect x="695" y="200" width="10" height="20" fill="#0f172a" />
  
  <!-- Castle gate -->
  <rect x="580" y="250" width="40" height="50" fill="#0f172a" />
  
  <!-- Castle flags -->
  <rect x="600" y="100" width="2" height="20" fill="#94a3b8" />
  <polygon points="602,100 612,105 602,110" fill="#dc2626" />
  
  <rect x="505" y="150" width="2" height="15" fill="#94a3b8" />
  <polygon points="507,150 515,153 507,156" fill="#dc2626" />
  
  <rect x="695" y="150" width="2" height="15" fill="#94a3b8" />
  <polygon points="697,150 705,153 697,156" fill="#dc2626" />
  
  <!-- Torches with glow -->
  <circle cx="540" cy="260" r="5" fill="#f59e0b" />
  <circle cx="540" cy="260" r="10" fill="#f59e0b" opacity="0.3" />
  
  <circle cx="660" cy="260" r="5" fill="#f59e0b" />
  <circle cx="660" cy="260" r="10" fill="#f59e0b" opacity="0.3" />
  
  <!-- Path to castle -->
  <path d="M550,300 Q600,290 650,300 L650,400 L550,400 Z" fill="#475569" />
</svg>

